<svg id="Layer_1" data-name="Layer 1" xmlns="http://www.w3.org/2000/svg" viewBox="0 0 994 350"><defs><style>.cls-1{fill:#e00;}.cls-2{fill:#fff;}</style></defs><title>Logo-Red_Hat-Enterprise_Linux_CoreOS-B-Reverse-RGB</title><path class="cls-1" d="M128,84c12.51,0,30.61-2.58,30.61-17.46a14,14,0,0,0-.31-3.42l-7.45-32.36c-1.72-7.12-3.23-10.35-15.73-16.6C125.39,9.19,104.26,1,98,1c-5.82,0-7.55,7.54-14.45,7.54-6.68,0-11.64-5.6-17.89-5.6-6,0-9.91,4.09-12.93,12.5,0,0-8.41,23.72-9.49,27.16A6.43,6.43,0,0,0,43,44.54C43,53.76,79.33,84,128,84m32.55-11.42c1.73,8.19,1.73,9.05,1.73,10.13,0,14-15.74,21.77-36.43,21.77C79,104.47,38.08,77.1,38.08,59a18.45,18.45,0,0,1,1.51-7.33C22.77,52.52,1,55.54,1,74.72,1,106.2,75.59,145,134.65,145c45.28,0,56.7-20.48,56.7-36.65,0-12.72-11-27.16-30.83-35.78"/><path d="M160.52,72.57c1.73,8.19,1.73,9.05,1.73,10.13,0,14-15.74,21.77-36.43,21.77C79,104.47,38.08,77.1,38.08,59a18.45,18.45,0,0,1,1.51-7.33l3.66-9.06A6.43,6.43,0,0,0,43,44.54C43,53.76,79.33,84,128,84c12.51,0,30.61-2.58,30.61-17.46a14,14,0,0,0-.31-3.42Z"/><path class="cls-2" d="M227.65,145.73h53.66v9.57H238.57v21.84h28.08v9.36H238.57V209h43.16v9.57H227.65Z"/><path class="cls-2" d="M291.71,165.6h10.4v5.3A21.8,21.8,0,0,1,318,164.56c12.16,0,20.69,8.42,20.69,20.7v33.28h-10.4V187c0-8.32-5.09-13.41-13.1-13.41a15,15,0,0,0-13.11,6.86v38.07h-10.4Z"/><path class="cls-2" d="M355.46,174.33H344.23V165.6h11.23V152.08l10.3-2.5v16h15.6v8.73h-15.6V203c0,5.41,2.18,7.38,7.8,7.38a20.55,20.55,0,0,0,7.59-1.24v8.73a34.32,34.32,0,0,1-9.88,1.56c-10.29,0-15.81-4.89-15.81-14Z"/><path class="cls-2" d="M413.29,219.47c-15.6,0-27.77-12-27.77-27.45,0-15.29,11.65-27.25,26.52-27.25,14.56,0,25.59,12.06,25.59,27.66v3H395.82a17.84,17.84,0,0,0,17.89,15.18A20.59,20.59,0,0,0,427.12,206l6.66,6.55A31.56,31.56,0,0,1,413.29,219.47Zm-17.37-31.82h31.41c-1.56-8.11-7.8-14.15-15.5-14.15C403.83,173.5,397.48,179.22,395.92,187.65Z"/><path class="cls-2" d="M447.5,165.6h10.4v6.76a16.57,16.57,0,0,1,14.56-7.91,13.13,13.13,0,0,1,5.31.84v9.36a17.81,17.81,0,0,0-6.14-1.15c-6.13,0-11,3.33-13.73,9.68v35.36H447.5Z"/><path class="cls-2" d="M486.09,165.6h10.29v5.09a24.21,24.21,0,0,1,16.23-5.92c15,0,26.73,12,26.73,27.25s-11.76,27.35-26.94,27.35a26.72,26.72,0,0,1-15.91-5.2v25.9h-10.4Zm10.4,14.56v23.92c3.32,3.85,8.84,6.24,14.77,6.24,10.19,0,17.88-7.8,17.88-18.2s-7.8-18.31-17.88-18.31C505.22,173.81,499.92,176.1,496.49,180.16Z"/><path class="cls-2" d="M549.21,165.6h10.41v6.76a16.56,16.56,0,0,1,14.56-7.91,13.1,13.1,0,0,1,5.3.84v9.36a17.81,17.81,0,0,0-6.14-1.15c-6.13,0-11,3.33-13.72,9.68v35.36H549.21Z"/><path class="cls-2" d="M586.65,150.62a6.4,6.4,0,0,1,6.35-6.45,6.45,6.45,0,1,1,0,12.9A6.39,6.39,0,0,1,586.65,150.62Zm11.55,67.92H587.8V165.6h10.4Z"/><path class="cls-2" d="M611.09,204.81c5.51,4.37,11.34,6.65,17.27,6.65,7.48,0,12.68-3.22,12.68-7.9,0-3.74-2.7-5.93-8.52-6.76L623,195.45c-10.51-1.56-15.81-6.45-15.81-14.67,0-9.57,8.32-16,20.7-16a36.28,36.28,0,0,1,21.32,6.76l-5.31,6.86c-5.82-3.85-11.13-5.51-16.74-5.51-6.35,0-10.61,2.91-10.61,7.18,0,3.84,2.5,5.72,8.74,6.65l9.56,1.35c10.51,1.56,16,6.56,16,14.77,0,9.47-9.57,16.64-22.15,16.64-9.15,0-17.37-2.7-23.2-7.8Z"/><path class="cls-2" d="M684.72,219.47c-15.6,0-27.77-12-27.77-27.45,0-15.29,11.65-27.25,26.52-27.25,14.57,0,25.59,12.06,25.59,27.66v3H667.25a17.86,17.86,0,0,0,17.89,15.18A20.62,20.62,0,0,0,698.56,206l6.65,6.55A31.52,31.52,0,0,1,684.72,219.47Zm-17.37-31.82h31.41c-1.56-8.11-7.8-14.15-15.49-14.15C675.26,173.5,668.91,179.22,667.35,187.65Z"/><path class="cls-2" d="M741.92,145.73h10.92v63.13h41.92v9.68H741.92Z"/><path class="cls-2" d="M803.39,150.62a6.39,6.39,0,0,1,6.34-6.45,6.45,6.45,0,0,1,0,12.9A6.39,6.39,0,0,1,803.39,150.62Zm11.54,67.92h-10.4V165.6h10.4Z"/><path class="cls-2" d="M827.2,165.6h10.4v5.3a21.8,21.8,0,0,1,15.91-6.34c12.17,0,20.7,8.42,20.7,20.7v33.28h-10.4V187c0-8.32-5.1-13.41-13.1-13.41a15,15,0,0,0-13.11,6.86v38.07H827.2Z"/><path class="cls-2" d="M895.84,197c0,8.32,5.1,13.52,13.11,13.52a14.89,14.89,0,0,0,13-7v-38h10.4v52.94H922v-5.31A21.65,21.65,0,0,1,906,219.58c-12.17,0-20.59-8.53-20.59-20.8V165.6h10.4Z"/><path class="cls-2" d="M959.28,191.39,939.52,165.6h12.17l13.62,18.2,13.63-18.2h11.75l-19.55,25.69L992,218.54H979.77L965.21,199l-14.77,19.56H938.69Z"/><path class="cls-2" d="M284.64,307.82l7.18,7.28a40.06,40.06,0,0,1-29.12,12.58c-21.53,0-38.17-16.54-38.17-37.54s16.64-37.55,38.17-37.55c11.44,0,22.46,4.78,29.33,12.58l-7.28,7.49a28.94,28.94,0,0,0-22.05-10c-15.39,0-27,11.85-27,27.46s11.75,27.45,27.35,27.45A28.24,28.24,0,0,0,284.64,307.82Z"/><path class="cls-2" d="M324.37,272.56A27.51,27.51,0,1,1,296.81,300,27.17,27.17,0,0,1,324.37,272.56ZM341.63,300c0-10.3-7.69-18.31-17.26-18.31S307,289.72,307,300s7.59,18.4,17.37,18.4C333.94,318.42,341.63,310.31,341.63,300Z"/><path class="cls-2" d="M361.71,273.6h10.4v6.76a16.56,16.56,0,0,1,14.56-7.91,13.1,13.1,0,0,1,5.3.84v9.36a17.81,17.81,0,0,0-6.14-1.15c-6.13,0-11,3.33-13.72,9.68v35.36h-10.4Z"/><path class="cls-2" d="M422.44,327.47c-15.6,0-27.77-12-27.77-27.45,0-15.29,11.65-27.25,26.52-27.25,14.56,0,25.59,12.06,25.59,27.66v3H405a17.85,17.85,0,0,0,17.89,15.18A20.57,20.57,0,0,0,436.27,314l6.66,6.55A31.54,31.54,0,0,1,422.44,327.47Zm-17.37-31.82h31.41c-1.56-8.11-7.8-14.15-15.5-14.15C413,281.5,406.63,287.22,405.07,295.65Z"/><path class="cls-2" d="M492.64,327.68c-21.22,0-37.86-16.54-37.86-37.54s16.64-37.55,37.86-37.55,38,16.54,38,37.55S513.86,327.68,492.64,327.68Zm0-65c-15.08,0-26.73,11.85-26.73,27.46s11.65,27.45,26.73,27.45,26.83-12,26.83-27.45S507.83,262.68,492.64,262.68Z"/><path class="cls-2" d="M542.35,306.78c7.9,7.69,16,11.44,25.07,11.44,10.5,0,17.68-5,17.68-12.17,0-6.45-4.16-9.67-14.77-11.44l-12.17-2c-13.31-2.18-19.87-8.42-19.87-18.93,0-12.69,10.61-20.9,26.84-20.9a48.82,48.82,0,0,1,29.33,9.88l-6,8.32c-7.9-6-15.7-8.95-23.81-8.95-9.47,0-15.81,4.37-15.81,10.82,0,5.93,3.64,8.74,13,10.3L573.55,285c15.39,2.5,22.36,8.84,22.36,20.18,0,13.41-11.65,22.36-29,22.36a43.85,43.85,0,0,1-31.21-13.11Z"/><path class="cls-2" d="M580.24,93.3c0,11.89,7.15,17.67,20.19,17.67a52.11,52.11,0,0,0,11.89-1.68V95.51a24.84,24.84,0,0,1-7.68,1.16c-5.37,0-7.36-1.68-7.36-6.73V68.8h15.56V54.6H597.28v-18l-17,3.68V54.6H569V68.8h11.25Zm-53,.32c0-3.68,3.69-5.47,9.26-5.47a43.12,43.12,0,0,1,10.1,1.26v7.15A21.51,21.51,0,0,1,536,99.19c-5.46,0-8.73-2.1-8.73-5.57m5.2,17.56c6,0,10.84-1.26,15.36-4.31v3.37h16.82V74.58c0-13.56-9.14-21-24.39-21-8.52,0-16.94,2-26,6.1l6.1,12.52c6.52-2.74,12-4.42,16.83-4.42,7,0,10.62,2.73,10.62,8.31v2.73a49.53,49.53,0,0,0-12.62-1.58c-14.31,0-22.93,6-22.93,16.73,0,9.78,7.78,17.24,20.19,17.24m-92.44-.94h18.09V81.42h30.29v28.82h18.09V36.62H488.43V64.91H458.14V36.62H440.05ZM371.12,82.37c0-8,6.31-14.1,14.62-14.1a17.22,17.22,0,0,1,11.78,4.32V92a16.36,16.36,0,0,1-11.78,4.42c-8.2,0-14.62-6.1-14.62-14.09m26.61,27.87h16.83V32.94l-17,3.68V57.55a28.3,28.3,0,0,0-14.2-3.68c-16.19,0-28.92,12.51-28.92,28.5A28.25,28.25,0,0,0,382.8,111a25.12,25.12,0,0,0,14.93-4.83Zm-77.19-42.7c5.36,0,9.88,3.47,11.67,8.83H309c1.68-5.57,5.89-8.83,11.57-8.83M291.83,82.47c0,16.2,13.25,28.82,30.28,28.82,9.36,0,16.2-2.53,23.25-8.42l-11.26-10c-2.63,2.74-6.52,4.21-11.14,4.21a14.39,14.39,0,0,1-13.68-8.83h39.65V84.05c0-17.67-11.88-30.39-28.08-30.39a28.57,28.57,0,0,0-29,28.81M262.49,52.08c6,0,9.36,3.78,9.36,8.31s-3.37,8.31-9.36,8.31H244.61V52.08Zm-36,58.16h18.09V83.42h13.77l13.89,26.82h20.19l-16.2-29.45a22.27,22.27,0,0,0,13.88-20.72c0-13.25-10.41-23.45-26-23.45H226.52Z"/></svg>